<svg xmlns="http://www.w3.org/2000/svg" data-name="Layer 1" viewBox="0 0 864.762 663.114"><path fill="#f2f2f2" d="m792.526 475.115 27.03-3.065a87.77 87.77 0 0 0 7.538-41.552c-14.693 20.716-45.776 20.384-66.43 35.162a52.794 52.794 0 0 0-21.692 40.293l-8.926 17.104a88.466 88.466 0 0 0 70.244-23.506 85.453 85.453 0 0 0 13.484-16.666c-10.636-3.22-21.248-7.77-21.248-7.77Z"/><path fill="#f2f2f2" d="m771.946 436.19 22.826-14.798a87.77 87.77 0 0 0-11.784-40.553c-3.912 25.094-31.88 38.66-43.777 61.098a52.794 52.794 0 0 0-1.445 45.738l-.36 19.29a88.466 88.466 0 0 0 52.387-52.367 85.453 85.453 0 0 0 4.636-20.93c-10.956 1.86-22.483 2.522-22.483 2.522Z"/><circle cx="672.853" cy="535.378" r="81.909" fill="#fff"/><path fill="#3f3d56" d="M672.853 618.287a82.909 82.909 0 1 1 82.909-82.91 83.003 83.003 0 0 1-82.909 82.91Zm0-163.817a80.909 80.909 0 1 0 80.909 80.908 81 81 0 0 0-80.909-80.908Z"/><path fill="#6c63ff" d="M666.72 568.113c-.174 0-.348-.005-.523-.014a10.711 10.711 0 0 1-7.94-4.125l-13.689-17.598a10.716 10.716 0 0 1 1.879-15.04l.492-.384a10.715 10.715 0 0 1 15.043 1.88 7.816 7.816 0 0 0 11.837.576l27.793-29.341a10.732 10.732 0 0 1 15.152-.412l.456.435a10.714 10.714 0 0 1 .408 15.15l-43.13 45.526a10.705 10.705 0 0 1-7.777 3.347Z"/><path fill="#a0616a" d="m630.005 640.052-11.36 1.265-10.763-44.072 16.765-1.868 5.358 44.675z"/><path fill="#2f2e41" d="M704.845 441.914a19.773 19.773 0 0 0-1.116-1.018 103.626 103.626 0 0 0-9.176-6.795c-3.6-2.398-7.65-4.846-12.23-7.373q-3.326-1.837-7.03-3.75-1.855-.96-3.818-1.933a1.929 1.929 0 0 0-.171-.089l-.379-.192-27.568 22.756-1.958 1.539 5.078 6.262s-.442 4.979-.431 4.981l-5.042 12.58-.055.025-17.96 8.198-18.509 8.45-9.94 4.54a19.097 19.097 0 0 0-10.022 10.828 19.853 19.853 0 0 0 .654 15.333c.223.486.472.973.737 1.442l4.13 25.972a156.324 156.324 0 0 0 14.232 44.71l6.309 24.311.958-.48 14.27-7.148 3.77-1.884.71-16.335c.081-1.862.093-3.734.027-5.602a72.007 72.007 0 0 0-.875-9.128l-8.181-50.94q2.177-.888 4.296-1.784 9.821-4.11 18.596-8.308c19.026-9.094 34.526-18.534 47.19-28.76q5.338-4.3 10.014-8.806 1.719-1.646 3.346-3.324c.258-.26.51-.514.757-.776a19.328 19.328 0 0 0 4.797-17.87 19.721 19.721 0 0 0-5.41-9.632ZM629.08 632.337l-12.297 1.36-1.93.21 1.256 7.303-14.29 13.96a4.63 4.63 0 0 0 4.014 7.877l20.294-3.476 2.257-7.822 2.605 6.989 7.644-1.308-6.563-25.421Z"/><path fill="#a0616a" d="m640.783 379.472 10.529-11.166-14.853-32.498-2.21-11.415a8.63 8.63 0 0 0-14.09-4.912 8.63 8.63 0 0 0-1.122 11.944l8.201 10.251Z"/><path fill="#e6e6e6" d="m651.312 363.306-12 12 2.296 17.545a13.953 13.953 0 0 0 10.06 9.331 13.953 13.953 0 0 0 15.197-6.394l26.991-46.265a14.242 14.242 0 0 0-4.592-19.36 14.243 14.243 0 0 0-20.402 5.75l-16.475 35.104Z"/><path fill="#a0616a" d="M639.223 540.382a277.819 277.819 0 0 1-7.594 7.423l.006.022-.042.018-.013.011-1.068.551-2.656-3.912-1.225-1.802-1.732-2.553-3.173-4.67-16.703-24.586 14.98-7.732 1.18 2.295.007-.002.583 1.138 10.955 21.226 2.237 4.34.07.131 1.344 2.591 1.16 2.246 1.294 2.51Z"/><path fill="#2f2e41" d="m636.128 532.413-10.427 6.658-1.638 1.043 4.356 5.994-6.643 18.841a4.63 4.63 0 0 0 7.084 5.29l16.664-12.093-1.434-8.014 5.426 5.116 6.278-4.554-17.129-19.897Z"/><path fill="#f2f2f2" d="m274.07 163.735 7.985-26.004a87.77 87.77 0 0 0-35.084-23.506c13.125 21.743.407 50.108 5.707 74.946a52.794 52.794 0 0 0 28.277 35.978l12.117 15.013a88.466 88.466 0 0 0 6.502-73.786 85.453 85.453 0 0 0-9.894-19.018c-7.2 8.465-15.61 16.377-15.61 16.377Z"/><path fill="#f2f2f2" d="m230.165 167.058-4.45-26.837a87.77 87.77 0 0 0-41.885-5.391c21.444 13.608 22.71 44.667 38.532 64.534a52.794 52.794 0 0 0 41.354 19.591l17.541 8.034a88.466 88.466 0 0 0-27.088-68.942 85.453 85.453 0 0 0-17.337-12.609c-2.67 10.788-6.667 21.62-6.667 21.62Z"/><path fill="#ffb8b8" d="m382.987 88.243 8.2-10.251a8.63 8.63 0 0 0-1.122-11.944 8.63 8.63 0 0 0-14.09 4.912l-2.21 11.415-8.382 22.634 10.06 5.03Z"/><path fill="#2f2e41" d="m357.838 117.584-16.475-35.105a14.243 14.243 0 0 0-20.402-5.75 14.242 14.242 0 0 0-4.593 19.36l26.992 46.265a13.953 13.953 0 0 0 15.196 6.395 13.953 13.953 0 0 0 10.06-9.331l10.18-31.894-13.413-6.706Z"/><path fill="#3f3d56" d="m388.924 106.286-10.793-.905a6.42 6.42 0 0 1-5.854-6.927l4.152-49.521a6.42 6.42 0 0 1 6.927-5.855l10.793.905a6.42 6.42 0 0 1 5.854 6.926l-4.152 49.522a6.42 6.42 0 0 1-6.927 5.855Z"/><path fill="#6c63ff" d="M381.88 45.498a3.46 3.46 0 0 0-3.732 3.155l-4.152 49.522a3.46 3.46 0 0 0 3.155 3.732l10.793.905a3.46 3.46 0 0 0 3.732-3.155l4.153-49.522a3.46 3.46 0 0 0-3.155-3.732Z"/><path fill="#ffb8b8" d="M314.897 150.859H359.8v44.903h-44.903z"/><circle cx="368.533" cy="144.613" r="2.406" fill="#2f2e41"/><path fill="#ffb6b6" d="m408.613 340.53 11.976-.001 5.698-46.194-17.676.001.002 46.194z"/><path fill="#2f2e41" d="m405.643 334.622 18.932-1.13v8.111l18 12.431a5.067 5.067 0 0 1-2.88 9.236h-22.54l-3.884-8.023-1.517 8.023h-8.498Z"/><path fill="#ffb6b6" d="m319.732 373.506 10.269 6.163 28.658-36.675-15.155-9.096-23.772 39.608z"/><path fill="#2f2e41" d="m320.226 366.912 16.814 8.774-4.175 6.955 9.035 19.921A5.067 5.067 0 0 1 334.68 409l-19.326-11.6.799-8.879-5.43 6.099-7.287-4.374Z"/><path fill="#6c63ff" d="M78.92 369.486c-.119 0-.237-.003-.357-.007a8.649 8.649 0 0 1-6.954-3.956 97.704 97.704 0 0 0-20.569-22.28c-4.827-3.858-9.871-7.446-14.749-10.915-12.584-8.948-24.435-17.376-31.014-29.02-14.343-25.391 2.548-60.758 26.68-76.618 27.065-17.789 62.666-20.58 97.106-20.945q5.37-.057 10.744-.056a1024.404 1024.404 0 0 1 185.006 16.916c20.293 3.744 41.535 8.33 58.605 19.461 16.969 11.065 27.283 28.49 26.277 44.393-1.47 23.216-26.08 40.563-48.49 45.099-21.36 4.319-43.55 1.4-67.042-1.691-5.187-.682-10.549-1.388-15.852-2-57.63-6.662-165.892 13.87-170.472 14.747l-4.545.87-17.63 22.689a8.461 8.461 0 0 1-6.745 3.313Z"/><path fill="#fff" d="M335.553 256.23H91.97a5.3 5.3 0 0 1 0-10.6h243.583a5.3 5.3 0 0 1 0 10.6ZM335.553 288.761H91.97a5.3 5.3 0 1 1-.011-10.6h243.594a5.3 5.3 0 0 1 0 10.6ZM120.356 321.291H91.97a5.3 5.3 0 0 1 0-10.6h28.386a5.3 5.3 0 0 1 0 10.6Z"/><path fill="#2f2e41" d="m361.39 182.907-48.01-5.729 1.382 9.102s-32.51 26.196-10.255 55.098l10.744 10.478-.989 4.924h6.9l.74 5.941 29.68 24.568 1.704 5.027h4.888l-2.388 5.715-22.036 51.25 18.256 8.511 33.623-64.456-8.613-19.427-30.982-39.213 47.987 18.954.818 4.161 4.411-.835-.852 6.123 9.364 48.181 19.835-2.632-2.04-59.951a18.59 18.59 0 0 0-10.128-15.694c-10.167-5.223-47.725-19.733-47.725-19.733Z"/><path fill="#3f3d56" d="m342.16 77.891-9.039-11.618-12.893-.558-1.286 10.926-6.389 2.946a171.329 171.329 0 0 0-2.886 74.227 6.61 6.61 0 0 1 1.88 6.42l-.414 1.65.039.061a9.672 9.672 0 0 1 1.284 7.22l-11.679 20.752c24.8 10.109 42.982-8.742 59.825-33.445l10.424-36.083Z"/><path fill="#2f2e41" d="m369.331 144.693 2.434-24.344-32.315-47.836-1.329.897 31.99 47.357-2.376 23.766 1.596.16z"/><circle cx="333.752" cy="41.482" r="23.838" fill="#ffb8b8"/><path fill="#2f2e41" d="m336.818 12.41-2.992.094-1.016.033-11.383.36c-10.09.321-17.978 9.783-17.618 21.134-7.371 7.886-4.782 17.391 1.586 27.51a119.655 119.655 0 0 1 31.959 7.47l1.242-6.18 3.09 7.99q3.838 1.711 7.623 3.767c-3.323-13.493-4.943-27.01-3.292-37.6l5.213-.166-.18-5.705 1.95 5.649 9.45-.3a24.857 24.857 0 0 0-25.632-24.057Z"/><circle cx="316.235" cy="11.226" r="11.226" fill="#2f2e41"/><path fill="#ffb8b8" d="m389.987 100.243 8.2-10.251a8.63 8.63 0 0 0-1.122-11.944 8.63 8.63 0 0 0-14.09 4.912l-2.21 11.415-8.382 22.634 10.06 5.03Z"/><path fill="#2f2e41" d="m364.838 129.584-16.475-35.105a14.243 14.243 0 0 0-20.402-5.75 14.242 14.242 0 0 0-4.593 19.36l26.992 46.265a13.953 13.953 0 0 0 15.196 6.395 13.953 13.953 0 0 0 10.06-9.331l10.18-31.894-13.413-6.706ZM711.317 462.232a306.329 306.329 0 0 1-3.166 4.968q-2.976 4.59-6.112 9.043c0 .008-.008.008-.015.016a21.384 21.384 0 0 1-4.014 2.93c-.061.046-.13.076-.19.114a14.8 14.8 0 0 1-3.378 1.356l-1.28.318c-1.53.364-3.045.674-4.552.947a83.731 83.731 0 0 1-7.968 1.03c-.212.023-.424.038-.636.053-10.838.795-21.389-.485-32.401-2.583-5.439-1.03-10.99-2.264-16.739-3.544-1.878-.425-3.764-.841-5.673-1.258-.144-.03-.295-.068-.447-.098a630.673 630.673 0 0 0-8.339-1.772c-3.575-.735-1.742-.778-5.575-1.452 0 0 8.843 8.98 10.312 12.872 1.636 4.787 2.931 8.574.197 16.459l8.491 16.669-29.52 5.006c-16.27-31.88-29.272-52.874-23.464-65.238.023-.576.068-1.16.144-1.735a19.843 19.843 0 0 1 7.551-13.36 19.109 19.109 0 0 1 14.232-3.893l5.794.75 44.937-2.184 1.764-7.195.326-.121 10.354-3.795 35.81-13.125.09-.03 2.356-.864.28.454c.084.137.167.273.243.41a70.195 70.195 0 0 1 5.657 13.133 206.174 206.174 0 0 1 5.946 22.699q.102.5.182.909l.022.083c.023.129.038.212.046.235.826 3.438.25 7.634-1.265 11.793ZM617.119 550.991h-.712"/><path fill="#e6e6e6" d="m703.762 322.28-.259-14.354-22.741-2.646-2.385 12.121-23.9 22.46c-16.994 20.775-4.646 35.102-3.906 37.232l2.101 26.197 1.322 9.101-5.162 24.91 65.152 13.975c2.086-17.22-.237-33.222-13.838-46.102l6.873-21.385a43.912 43.912 0 0 0 6.392-18.421l.247-2.237c6.073-18.923 2.476-25.294-9.896-40.85Z"/><path fill="#2f2e41" d="M735.667 277.418c.016.371.023.742.023 1.106a25.426 25.426 0 0 1-33.31 24.13l-4.673-1.522c-.038-.015-.084-.022-.122-.037l-7.702-2.515a5.267 5.267 0 0 1 .015-.977c-11.49-4.908 4.393-21.033 8.339-33.144.613-1.886-20.48-.477-19.48-2.09-.22-.114-.44-.227-.644-.341a31.216 31.216 0 0 1 34.477-13.436c.166.037.34.09.507.136 14.966.371 22.828 10.8 22.828 24.343a37.142 37.142 0 0 1-.258 4.347Z"/><path fill="#a0616a" d="M722.7 282.75a24.4 24.4 0 0 1-30.757 15.626q-1.045-.341-2.045-.773a24.39 24.39 0 0 1-13.58-29.978 24.146 24.146 0 0 1 2.438-5.256 24.393 24.393 0 0 1 43.945 20.381Z"/><path fill="#2f2e41" d="M697.702 301.13a.844.844 0 0 1-.12-.04l-7.7-2.51c-.02-.33-14.16 9.03-14.12 8.7.22-2.53 16.15-14.87 18.53-17.74a14.759 14.759 0 0 0-6.48-23.44 1.181 1.181 0 0 1-.2-.07c-1.49-.52-2.92-1.05-4.26-1.58-.66-2.75-1-1.84-2.59-4.17.29 2.12-2.4 3.72-2.44 5.86-.55-.25-1.07-.51-1.57-.77-.22-.12-.43-.23-.64-.34a10.618 10.618 0 0 1-3.93-3.14c3.85-11.83 18.58-21.3 30.41-17.43l4.47 1.45a22.434 22.434 0 0 1 13.03 11.09 25.257 25.257 0 0 1 7.58 9.49c9.78 19.65-9.11 41.34-29.97 34.64Z"/><circle cx="730.048" cy="257.643" r="10.604" fill="#2f2e41"/><path fill="#2f2e41" d="M864.762 279.27a70.321 70.321 0 0 1-37.12 47.73c-1.19.59-2.4 1.14-3.62 1.65a23.986 23.986 0 0 0-4.07-13.91 42.678 42.678 0 0 1 .16 10.04 42.241 42.241 0 0 1-.95 5.69 70.484 70.484 0 0 1-24.34 3.51 23.649 23.649 0 0 0-3.87-10.24 42.678 42.678 0 0 1 .16 10.04 68.904 68.904 0 0 1-23.93-6.41c-3.91-1.86-7.75-4.19-10.27-7.71-3.35-4.69-3.91-10.88-3.09-16.58.82-5.71 2.87-11.16 4.3-16.74s2.24-11.55.56-17.06c-1.67-5.52-6.36-10.43-12.11-10.86-2.62-.2-5.25.52-7.87.28-2.62-.25-5.46-2-5.52-4.63l2.51-4.08c1.06-7.14 4.7-14.22 10.94-17.85 6.23-3.64 15.19-2.86 19.64 2.82 3.75 4.78 3.61 11.42 4.84 17.37 2.86 13.82 13.91 24.94 26.75 30.8 12.85 5.85 27.31 7.08 41.43 6.84 4.84-.09 9.76-.35 14.36-1.88 4.61-1.54 8.91-4.5 11.11-8.82Z"/><path fill="#3f3d56" d="m624.28 342.998-4.153-49.522a6.42 6.42 0 0 1 5.855-6.926l10.793-.905a6.42 6.42 0 0 1 6.926 5.855l4.153 49.521a6.42 6.42 0 0 1-5.855 6.927l-10.793.905a6.42 6.42 0 0 1-6.926-5.855Z"/><path fill="#6c63ff" d="M627.456 288.97a3.46 3.46 0 0 0-3.155 3.732l4.153 49.522a3.46 3.46 0 0 0 3.733 3.155l10.793-.905a3.46 3.46 0 0 0 3.155-3.733l-4.153-49.521a3.46 3.46 0 0 0-3.733-3.155Z"/><path fill="#a0616a" d="m645.654 359.99 10.508-4.01-6.103-23.352-1.07-11.578a8.63 8.63 0 0 0-13.534-6.282 8.63 8.63 0 0 0-2.299 11.775l7.147 11.012Z"/><path fill="#e6e6e6" d="m656.577 351.809-14.01 5.347 6.973 32.744a13.953 13.953 0 0 0 9.088 10.28 13.953 13.953 0 0 0 15.754-4.86l31.436-43.367a14.242 14.242 0 0 0-2.654-19.72 14.242 14.242 0 0 0-20.872 3.704l-19.866 33.302Z"/><path d="m645.182 369.436 7.081 28.76 1.47 1.787a11.448 11.448 0 0 0 18.656-1.367l22.443-37.316-20.234 28a11.448 11.448 0 0 1-19.348-1.258Z" opacity=".2"/></svg>